<?xml version="1.0" encoding="UTF-8" standalone="no"?>
<!-- Created with Inkscape (http://www.inkscape.org/) -->

<svg
   xmlns:osb="http://www.openswatchbook.org/uri/2009/osb"
   xmlns:dc="http://purl.org/dc/elements/1.1/"
   xmlns:cc="http://creativecommons.org/ns#"
   xmlns:rdf="http://www.w3.org/1999/02/22-rdf-syntax-ns#"
   xmlns:svg="http://www.w3.org/2000/svg"
   xmlns="http://www.w3.org/2000/svg"
   xmlns:xlink="http://www.w3.org/1999/xlink"
   xmlns:sodipodi="http://sodipodi.sourceforge.net/DTD/sodipodi-0.dtd"
   xmlns:inkscape="http://www.inkscape.org/namespaces/inkscape"
   width="26.726954mm"
   height="11.006666mm"
   viewBox="0 0 94.701796 38.99999"
   id="svg3871"
   version="1.1"
   inkscape:version="0.91 r13725"
   sodipodi:docname="yuan-logo.svg">
  <defs
     id="defs3873">
    <linearGradient
       id="linearGradient6413"
       osb:paint="solid">
      <stop
         style="stop-color:#014cb1;stop-opacity:1;"
         offset="0"
         id="stop6415" />
    </linearGradient>
    <linearGradient
       id="linearGradient4970"
       osb:paint="gradient">
      <stop
         style="stop-color:#014cb1;stop-opacity:1"
         offset="0"
         id="stop4972" />
      <stop
         style="stop-color:#6b6b6b;stop-opacity:0;"
         offset="1"
         id="stop4974" />
    </linearGradient>
    <linearGradient
       inkscape:collect="always"
       xlink:href="#linearGradient4970"
       id="linearGradient6463"
       x1="700.27075"
       y1="90.511948"
       x2="700.27075"
       y2="57.791946"
       gradientUnits="userSpaceOnUse" />
  </defs>
  <sodipodi:namedview
     id="base"
     pagecolor="#ffffff"
     bordercolor="#666666"
     borderopacity="1.0"
     inkscape:pageopacity="0.0"
     inkscape:pageshadow="2"
     inkscape:zoom="5.5541104"
     inkscape:cx="66.808113"
     inkscape:cy="17.430656"
     inkscape:document-units="px"
     inkscape:current-layer="layer1"
     showgrid="false"
     inkscape:snap-global="true"
     inkscape:snap-bbox="true"
     inkscape:snap-bbox-edge-midpoints="true"
     inkscape:snap-nodes="true"
     fit-margin-top="0"
     fit-margin-left="0"
     fit-margin-right="0"
     fit-margin-bottom="0"
     inkscape:window-width="1366"
     inkscape:window-height="704"
     inkscape:window-x="0"
     inkscape:window-y="27"
     inkscape:window-maximized="1"
     showguides="false"
     inkscape:bbox-nodes="true"
     showborder="false" />
  <metadata
     id="metadata3876">
    <rdf:RDF>
      <cc:Work
         rdf:about="">
        <dc:format>image/svg+xml</dc:format>
        <dc:type
           rdf:resource="http://purl.org/dc/dcmitype/StillImage" />
        <dc:title></dc:title>
      </cc:Work>
    </rdf:RDF>
  </metadata>
  <g
     inkscape:label="Layer 1"
     inkscape:groupmode="layer"
     id="layer1"
     style="display:inline"
     transform="translate(-532.81171,988.93151)">
    <flowRoot
       xml:space="preserve"
       id="flowRoot29184"
       style="font-style:normal;font-weight:normal;font-size:40px;line-height:125%;font-family:sans-serif;text-align:center;letter-spacing:0px;word-spacing:0px;text-anchor:middle;fill:#000000;fill-opacity:1;stroke:none;stroke-width:1px;stroke-linecap:butt;stroke-linejoin:miter;stroke-opacity:1"
       transform="translate(0,-506.69291)"><flowRegion
         id="flowRegion29186"><rect
           id="rect29188"
           width="173.74623"
           height="359.61432"
           x="1478.8633"
           y="876.19208" /></flowRegion><flowPara
         id="flowPara29190" /></flowRoot>    <flowRoot
       xml:space="preserve"
       id="flowRoot29192"
       style="font-style:normal;font-weight:normal;font-size:40px;line-height:125%;font-family:sans-serif;text-align:center;letter-spacing:0px;word-spacing:0px;text-anchor:middle;fill:#000000;fill-opacity:1;stroke:none;stroke-width:1px;stroke-linecap:butt;stroke-linejoin:miter;stroke-opacity:1"
       transform="translate(0,-506.69291)"><flowRegion
         id="flowRegion29194"><rect
           id="rect29196"
           width="1381.8887"
           height="682.8631"
           x="339.41125"
           y="702.4458" /></flowRegion><flowPara
         id="flowPara29198" /></flowRoot>    <flowRoot
       xml:space="preserve"
       id="flowRoot4654"
       style="font-style:normal;font-weight:normal;font-size:40px;line-height:125%;font-family:sans-serif;text-align:center;letter-spacing:0px;word-spacing:0px;text-anchor:middle;fill:#000000;fill-opacity:1;stroke:none;stroke-width:1px;stroke-linecap:butt;stroke-linejoin:miter;stroke-opacity:1"
       transform="translate(63.922264,-453.86244)"><flowRegion
         id="flowRegion4656"><rect
           id="rect4658"
           width="375.77676"
           height="135.36044"
           x="430.32498"
           y="210.09132" /></flowRegion><flowPara
         id="flowPara4660" /></flowRoot>    <flowRoot
       xml:space="preserve"
       id="flowRoot4662"
       style="font-style:normal;font-weight:normal;font-size:40px;line-height:125%;font-family:sans-serif;text-align:center;letter-spacing:0px;word-spacing:0px;text-anchor:middle;fill:#000000;fill-opacity:1;stroke:none;stroke-width:1px;stroke-linecap:butt;stroke-linejoin:miter;stroke-opacity:1"
       transform="translate(63.922264,-453.86244)"><flowRegion
         id="flowRegion4664"><rect
           id="rect4666"
           width="400.02042"
           height="94.954338"
           x="832.36572"
           y="109.07607" /></flowRegion><flowPara
         id="flowPara4668" /></flowRoot>    <flowRoot
       xml:space="preserve"
       id="flowRoot4670"
       style="font-style:normal;font-weight:normal;font-size:40px;line-height:125%;font-family:sans-serif;text-align:center;letter-spacing:0px;word-spacing:0px;text-anchor:middle;fill:#000000;fill-opacity:1;stroke:none;stroke-width:1px;stroke-linecap:butt;stroke-linejoin:miter;stroke-opacity:1"
       transform="translate(63.922264,-453.86244)"><flowRegion
         id="flowRegion4672"><rect
           id="rect4674"
           width="464.67017"
           height="204.05081"
           x="828.32507"
           y="88.873009" /></flowRegion><flowPara
         id="flowPara4676" /></flowRoot>    <g
       transform="matrix(0.40081361,0,0,0.82510579,324.36506,-1028.3831)"
       style="font-style:normal;font-variant:normal;font-weight:500;font-stretch:normal;font-size:40px;line-height:125%;font-family:StayPuft;-inkscape-font-specification:'StayPuft Medium';text-align:center;letter-spacing:0px;word-spacing:0px;text-anchor:middle;fill:#014cb1;fill-opacity:1;stroke:none;stroke-width:0.02020162;stroke-linecap:butt;stroke-linejoin:miter;stroke-miterlimit:4;stroke-dasharray:none;stroke-opacity:1"
       id="flowRoot3399">
      <path
         d="m 665.30344,58.111942 0,20.4 q 0,3.6 -1.68,6.32 -1.68,2.72 -4.72,4.2 -3,1.48 -7,1.48 -3.36,0 -6.68,-1.08 -3.32,-1.08 -5.52,-2.84 l 3.2,-5.56 q 1.64,1.12 3.8,1.84 2.2,0.68 4.12,0.68 2.76,0 4.44,-1.44 1.72,-1.44 1.72,-3.8 l 0,-2.44 q -1.32,2 -3.32,3.08 -2,1.08 -4.56,1.08 -2.88,0 -5.12,-1.32 -2.2,-1.36 -3.44,-3.8 -1.2,-2.44 -1.2,-5.64 l 0,-11.16 8.32,0 0,10.36 q 0,2 1.2,3.24 1.24,1.2 3.32,1.2 2.12,0 3.44,-1.36 1.36,-1.36 1.36,-3.56 l 0,-9.88 8.32,0 z"
         style="font-style:normal;font-variant:normal;font-weight:800;font-stretch:normal;font-family:'Montserrat Alternates';-inkscape-font-specification:'Montserrat Alternates Ultra-Bold';text-align:center;letter-spacing:-0.00107745px;text-anchor:middle;fill:#014cb1;fill-opacity:1;stroke-width:0.02020162;stroke-miterlimit:4;stroke-dasharray:none"
         id="path3381"
         inkscape:connector-curvature="0" />
      <path
         d="m 695.34799,58.111942 0,28.04 -8.32,0 0,-4.08 q -1.4,2.24 -3.56,3.44 -2.16,1.2 -4.88,1.2 -2.84,0 -5,-1.28 -2.12,-1.32 -3.32,-3.72 -1.16,-2.4 -1.16,-5.6 l 0,-18 8.4,0 0,16.04 q 0,2.28 1.2,3.68 1.2,1.4 3.16,1.4 2.32,0 3.72,-1.6 1.44,-1.6 1.44,-4.12 l 0,-15.4 8.32,0 z"
         style="font-style:normal;font-variant:normal;font-weight:800;font-stretch:normal;font-family:'Montserrat Alternates';-inkscape-font-specification:'Montserrat Alternates Ultra-Bold';text-align:center;letter-spacing:-0.00107745px;text-anchor:middle;fill:#014cb1;fill-opacity:1;stroke-width:0.02020162;stroke-miterlimit:4;stroke-dasharray:none"
         id="path3383"
         inkscape:connector-curvature="0" />
      <path
         d="m 699.65378,69.791942 q 0,-3.68 1.6,-6.44 1.6,-2.76 4.52,-4.24 2.96,-1.52 6.88,-1.52 4,0 6.96,1.52 2.96,1.48 4.56,4.24 1.64,2.76 1.64,6.44 l 0,16.36 -8.32,0 0,-6.32 -9.52,0 0,6.32 -8.32,0 0,-16.36 z m 17.84,0 q 0,-2.4 -1.32,-3.84 -1.28,-1.44 -3.44,-1.44 -2.2,0 -3.48,1.44 -1.28,1.44 -1.28,3.84 l 0,3.96 9.52,0 0,-3.96 z"
         style="font-style:normal;font-variant:normal;font-weight:800;font-stretch:normal;font-family:'Montserrat Alternates';-inkscape-font-specification:'Montserrat Alternates Ultra-Bold';text-align:center;letter-spacing:-0.00107745px;text-anchor:middle;fill:#014cb1;fill-opacity:1;stroke-width:0.02020162;stroke-miterlimit:4;stroke-dasharray:none"
         id="path3385"
         inkscape:connector-curvature="0" />
      <path
         d="m 746.8527,57.591942 q 2.84,0 4.96,1.28 2.16,1.28 3.32,3.6 1.2,2.32 1.2,5.4 l 0,18.28 -8.44,0 0,-16.28 q 0,-2.16 -1.2,-3.48 -1.16,-1.32 -3.12,-1.32 -2.32,0 -3.76,1.52 -1.4,1.48 -1.4,3.88 l 0,15.68 -8.32,0 0,-28.08 8.32,0 0,4.04 q 1.4,-2.16 3.56,-3.32 2.16,-1.2 4.88,-1.2 z"
         style="font-style:normal;font-variant:normal;font-weight:800;font-stretch:normal;font-family:'Montserrat Alternates';-inkscape-font-specification:'Montserrat Alternates Ultra-Bold';text-align:center;letter-spacing:-0.00107745px;text-anchor:middle;fill:#014cb1;fill-opacity:1;stroke-width:0.02020162;stroke-miterlimit:4;stroke-dasharray:none"
         id="path3387"
         inkscape:connector-curvature="0" />
    </g>
    <g
       transform="matrix(0.0975,0,0,0.0975,526.57929,-944.67993)"
       style="display:inline"
       id="layer1-0"
       inkscape:label="Layer 1">
      <path
         inkscape:connector-curvature="0"
         id="path29155"
         d="M 263.92223,-453.8624 A 200,200 0 0 0 63.922264,-253.86243 200,200 0 0 0 263.92223,-53.862454 200,200 0 0 0 463.92221,-253.86243 200,200 0 0 0 263.92223,-453.8624 Z m 0,29.33333 a 93.333326,93.333326 0 0 1 93.33333,93.33333 93.333326,93.333326 0 0 1 -93.33333,93.33331 93.333326,93.333326 0 0 1 -93.33332,-93.33331 93.333326,93.333326 0 0 1 93.33332,-93.33333 z m 159.76562,142.71358 a 160.00001,160.00001 0 0 1 0.2344,6.61973 160.00001,160.00001 0 0 1 -159.99999,159.99998 160.00001,160.00001 0 0 1 -159.99997,-159.99998 160.00001,160.00001 0 0 1 0.32293,-6.4792 176.00003,176.00003 0 0 0 159.67704,102.47918 176.00003,176.00003 0 0 0 159.76562,-102.61971 z"
         style="opacity:1;fill:#014cb1;fill-opacity:1;stroke:none;stroke-width:20;stroke-linecap:round;stroke-linejoin:round;stroke-miterlimit:4;stroke-dasharray:none;stroke-opacity:1" />
      <g
         transform="translate(0,-506.69291)"
         style="font-style:normal;font-weight:normal;font-size:40px;line-height:125%;font-family:sans-serif;text-align:center;letter-spacing:0px;word-spacing:0px;text-anchor:middle;fill:#000000;fill-opacity:1;stroke:none;stroke-width:1px;stroke-linecap:butt;stroke-linejoin:miter;stroke-opacity:1"
         id="flowRoot29184-8" />
      <g
         transform="translate(0,-506.69291)"
         style="font-style:normal;font-weight:normal;font-size:40px;line-height:125%;font-family:sans-serif;text-align:center;letter-spacing:0px;word-spacing:0px;text-anchor:middle;fill:#000000;fill-opacity:1;stroke:none;stroke-width:1px;stroke-linecap:butt;stroke-linejoin:miter;stroke-opacity:1"
         id="flowRoot29192-2" />
    </g>
    <flowRoot
       xml:space="preserve"
       id="flowRoot4276"
       style="font-style:normal;font-weight:normal;font-size:40px;line-height:125%;font-family:sans-serif;text-align:center;letter-spacing:0px;word-spacing:0px;text-anchor:middle;fill:#000000;fill-opacity:1;stroke:none;stroke-width:1px;stroke-linecap:butt;stroke-linejoin:miter;stroke-opacity:1"><flowRegion
         id="flowRegion4278"><rect
           id="rect4280"
           width="137.48213"
           height="244.89006"
           x="1233.043"
           y="961.86707" /></flowRegion><flowPara
         id="flowPara4282" /></flowRoot>  </g>
</svg>
